<svg width="24" height="24" viewBox="0 0 24 24" fill="none" xmlns="http://www.w3.org/2000/svg">
<path d="M2.33325 12C2.33325 17.3389 6.66105 21.6667 11.9999 21.6667C17.3388 21.6667 21.6666 17.3389 21.6666 12H2.33325Z" fill="white"/>
<path d="M16.3333 12C16.3333 17.3385 15 21.6667 12 21.6667C17.3389 21.6667 21.6667 17.3385 21.6667 12H16.3333Z" fill="#D0CFCE"/>
<path d="M2.33325 12C2.33325 17.3389 6.66105 21.6667 11.9999 21.6667C17.3388 21.6667 21.6666 17.3389 21.6666 12H2.33325Z" stroke="#333333" stroke-width="2" stroke-miterlimit="10" stroke-linecap="round" stroke-linejoin="round"/>
<path d="M2.33325 8.3802L4.66659 10.7135" stroke="#333333" stroke-width="2" stroke-miterlimit="10" stroke-linecap="round" stroke-linejoin="round"/>
<path d="M9.68092 2.61523C9.71475 2.99023 9.86775 3.35643 10.1546 3.64323C10.8053 4.29363 10.8053 5.34897 10.1546 6C9.50382 6.65103 9.50382 7.70637 10.1546 8.35677C10.8053 9.00717 10.8053 10.0625 10.1546 10.7135C10.8053 10.0625 10.8053 9.00717 10.1546 8.35677C9.50382 7.70637 9.50382 6.65103 10.1546 6C10.8053 5.34897 10.8053 4.29363 10.1546 3.64323C9.86775 3.35643 9.71475 2.99023 9.68092 2.61523" stroke="#333333" stroke-width="2" stroke-miterlimit="10" stroke-linecap="round" stroke-linejoin="round"/>
<path d="M11.5234 2.34537C11.4899 2.8112 11.6439 3.28743 12 3.64323C12.6507 4.29363 12.6507 5.34897 12 6C11.3493 6.65103 11.3493 7.70637 12 8.35677C12.6507 9.00717 12.6507 10.0625 12 10.7135C12.6507 10.0625 12.6507 9.00717 12 8.35677C11.3493 7.70637 11.3493 6.65103 12 6C12.6507 5.34897 12.6507 4.29363 12 3.64323C11.6439 3.28743 11.4899 2.8112 11.5234 2.34537Z" stroke="#333333" stroke-width="2" stroke-miterlimit="10" stroke-linecap="round" stroke-linejoin="round"/>
<path d="M13.3369 2.42773C13.3268 2.86653 13.4863 3.3086 13.8213 3.64323C14.472 4.29363 14.472 5.34897 13.8213 6C13.1706 6.65103 13.1706 7.70637 13.8213 8.35677C14.472 9.00717 14.472 10.0625 13.8213 10.7135C14.472 10.0625 14.472 9.00717 13.8213 8.35677C13.1706 7.70637 13.1706 6.65103 13.8213 6C14.472 5.34897 14.472 4.29363 13.8213 3.64323C13.4863 3.3086 13.3268 2.86653 13.3369 2.42773" stroke="#333333" stroke-width="2" stroke-miterlimit="10" stroke-linecap="round" stroke-linejoin="round"/>
</svg>
